<?xml version="1.0" standalone="no"?><!DOCTYPE svg PUBLIC "-//W3C//DTD SVG 1.1//EN" "http://www.w3.org/Graphics/SVG/1.1/DTD/svg11.dtd"><svg class="icon" width="200px" height="200.00px" viewBox="0 0 1024 1024" version="1.1" xmlns="http://www.w3.org/2000/svg"><path d="M928 704l-128 0c-64 0-96 44.8-96 102.4L704 832l-64 0 0-25.6c0-57.6-38.4-102.4-96-102.4l-128 0c-64 0-96 44.8-96 102.4l0 108.8C320 972.8 352 1024 416 1024l128 0c57.6 0 96-44.8 96-108.8L640 896l64 0 0 19.2c0 64 38.4 108.8 96 108.8l128 0c57.6 0 96-44.8 96-108.8l0-108.8C1024 748.8 985.6 704 928 704L928 704zM576 825.6 576 832 550.4 832C524.8 832 512 844.8 512 864 512 889.6 524.8 896 550.4 896L576 896c-6.4 64-19.2 64-44.8 64L422.4 960C403.2 960 384 921.6 384 902.4l0-76.8C384 800 403.2 768 422.4 768l108.8 0C556.8 768 576 800 576 825.6L576 825.6zM960 825.6l0 76.8c0 19.2-19.2 57.6-44.8 57.6l-108.8 0c-19.2 0-38.4 0-38.4-64l25.6 0c19.2 0 38.4-12.8 38.4-32 0-25.6-19.2-32-44.8-32L768 832l0-6.4c0-25.6 19.2-57.6 38.4-57.6l108.8 0C940.8 768 960 800 960 825.6L960 825.6z" fill="#1296db" /><path d="M256 1024 0 1024 0 377.6 313.6 0 1024 0 1024 640 960 640 960 64 345.6 64 64 403.2 64 960 256 960Z" fill="#1296db" /><path d="M384 448 0 448 0 384 320 384 320 0 384 0Z" fill="#1296db" /><path d="M512 723.2 512 723.2 512 723.2Z" fill="#1296db" /></svg>