<?xml version="1.0" standalone="no"?><!DOCTYPE svg PUBLIC "-//W3C//DTD SVG 1.1//EN" "http://www.w3.org/Graphics/SVG/1.1/DTD/svg11.dtd"><svg class="icon" width="200px" height="200.00px" viewBox="0 0 1024 1024" version="1.1" xmlns="http://www.w3.org/2000/svg"><path d="M750.08 170.666667H597.333333V85.333333h298.666667v298.666667h-85.333333V230.826667l-163.413334 163.413333A213.333333 213.333333 0 0 1 512 721.066667V810.666667h85.333333v85.333333h-85.333333v85.333333h-85.333333v-85.333333H341.333333v-85.333333h85.333334v-89.6A213.333333 213.333333 0 0 1 256 512a213.333333 213.333333 0 0 1 213.333333-213.333333c42.666667 0 83.626667 12.8 117.333334 35.413333L750.08 170.666667M469.333333 384a128 128 0 0 0-128 128 128 128 0 0 0 128 128 128 128 0 0 0 128-128 128 128 0 0 0-128-128z" fill="#e8989a" /></svg>