<?xml version="1.0" encoding="utf-8"?>
<!-- Generator: Adobe Illustrator 23.0.1, SVG Export Plug-In . SVG Version: 6.00 Build 0)  -->
<svg version="1.1" id="图层_1" xmlns="http://www.w3.org/2000/svg" xmlns:xlink="http://www.w3.org/1999/xlink" x="0px" y="0px"
	 viewBox="0 0 499.63 52.83" style="enable-background:new 0 0 499.63 52.83;" xml:space="preserve">
<style type="text/css">
	.st0{fill-rule:evenodd;clip-rule:evenodd;fill:#305DA1;}
	.st1{fill:#B9B9B9;}
</style>
<g>
	<g>
		<path class="st0" d="M8.23,12.92c-0.3-0.36-1.03-1.07-0.36-1.43c0.01,0.27,1.29-0.98,1-1.11c0.15-0.16,0.19-0.22,0.26-0.25
			c0.81-0.28,1.85,1.1,2.27,1.67c0.11,0.36,0.36,1.1,0.23,1.29c-1.26-0.6-0.45-0.55-0.45-0.84c-0.33-0.7-1.42-1.68-1.85-1.56
			c-0.2,0.2-0.54,0.91-0.88,1.13c-0.28,0.58,1.42,2.1,1.84,2.66c-0.23,0.13-0.27,0.11-0.46,0.08C9.39,14.1,8.4,13.09,8.23,12.92z"/>
		<path class="st0" d="M8.9,12.1c0,0.01,0.12,0.13,0.17,0.1c0.34-0.3,0.52-0.5,0.41-0.6c-0.08-0.07-0.09-0.1-0.15-0.08
			c-0.06,0.01-0.19,0.14-0.26,0.22C8.95,11.87,8.85,11.95,8.9,12.1z"/>
		<path class="st0" d="M9.95,12.83c0.56,0.51-0.16,0.52-0.46,0.36c-0.76-0.75,1.44-1.7,1.04-0.52C10.39,13.18,9.91,12.4,9.95,12.83z
			"/>
		<path class="st0" d="M18.96,3.51c-0.23,0.3,0.1,0.62,0.48,0.52c0.26-0.07-0.12-0.27-0.17-0.39c-0.01-0.03-0.01-0.2-0.09-0.22
			C19.15,3.42,18.93,3.46,18.96,3.51z"/>
		<path class="st0" d="M19.24,4.21c0.16,0.2,0.18,0.33,0.09,0.52C19.22,4.98,18.9,5.1,19.03,4.7c0.03-0.08-0.04-0.35-0.09-0.44
			C18.88,4.16,19.25,4.16,19.24,4.21z"/>
		<path class="st0" d="M19.66,8c-0.2-0.07-0.28-0.17-0.45-0.47c-0.05-0.71,0.14-1.23-0.26-2.38c0-0.01,0.17-0.04,0.18-0.01
			c0.16,0.44,0.48,1.12,0.4,1.48c-0.05,0.12,0.15,0.68,0.2,0.82C19.79,7.77,19.79,8.01,19.66,8z"/>
		<path class="st0" d="M20.11,4.09c-0.14,0.37,0.05,0.47,0.15,0.57C20.35,4.9,20,5.38,19.89,5.61c-0.08,0.16-0.14,0.41,0.08,0.57
			c0.38-0.07,0.46-0.27,0.53-0.58c0.04-0.18,0.13-0.57,0.17-0.89c-0.02,0.03,0.14-0.37,0.33-0.4c0.2,0.25-0.27,0.4-0.08,0.79
			c0.31,0.14,0.28-0.6,0.28-0.68c0.03-0.32,0.17-0.76,0.33-0.39c0.16,0.35,0.19,0.47,0.38,0.66c0.2,0.15,0.48-0.09,0.28-0.31
			c-0.24-0.11-0.33,0.05-0.53-0.59c-0.04-0.11,0.05-0.04,0.22-0.3c-0.05,0,0.15-0.33-0.15-0.23c-0.04,0.03-0.55,0.84-0.71,0.67
			c-0.19-0.18,0.29-0.57,0.37-0.79C21.42,3.06,21.45,3,21.4,2.84c-0.2,0.05-0.69,0.34-0.49-0.28c0.01-0.22-0.5,0.09-0.51,0.13
			c-0.19,0.19-0.43,0.6-0.46,0.9c-0.01,0.48,0.21,0.22,0.42,0.07c0.1-0.15,0.19-0.39,0.45-0.48c0.34-0.07-0.11,0.77-0.07,0.86
			c0,0.15,0.05,0.25,0.03,0.31C20.48,4.69,20.3,3.92,20.11,4.09z"/>
		<path class="st0" d="M22.25,3.42c0.29,0.17,0.28,0.1,0.13,0.42c-0.06,0.14,0.51,0.04,0.53,0.06c0.16,0.08,0.98-0.28,0.72,0.27
			c-0.19,0.4-1.06,0.26-1.3,0.14c-0.08-0.04-0.55-0.17-0.46-0.37C21.94,3.8,22.07,3.51,22.25,3.42z"/>
		<path class="st0" d="M20.86,5.31c-0.13,0.05-0.07,0.59-0.04,0.75c0.06,0.28,0.09,0.45,0.19,0.7c0.1,0.28,0.39,0.22,0.29-0.05
			C21.22,6.47,21.15,6.2,21.17,6c0.03-0.26,0.3-0.19,0.37,0.18c0.17,0.62,0.25,0.03,0.39-0.25c0.02-0.08,0.14-0.92,0.45-0.54
			c0.29,0.21,0,1.37,0.09,1.41c0.25,0.12,0.33-0.82,0.35-1.01c-0.01-0.37-0.14-0.71-0.38-0.88c-0.25-0.12-0.39-0.01-0.49,0.22
			c-0.02,0.04-0.01,0.58-0.17,0.52c-0.11-0.07-0.09-0.36-0.24-0.36c-0.11,0.08-0.23,0.47-0.39,0.45c-0.04-0.02-0.15-0.28-0.13-0.34
			C20.98,5.24,20.9,5.29,20.86,5.31z"/>
		<path class="st0" d="M35,4.09c-0.27,0.22-0.58,0.38-0.85,0.78c-0.13,0.27-0.23,0.61-0.44,0.54c-0.21-0.08-0.53-0.22-0.68-0.14
			c-0.15-0.05-0.72,0.37-0.44,0.48c0.23,0.08,0.45,0.15,0.62,0.07c0.38-0.03,0.49,0.04,0.25,0.23c-0.27,0.25-0.48,0.46-0.75,0.71
			c-0.21,0.21-0.46,0.41-0.2,0.58c0.25-0.02,0.92-0.55,1.09-0.62c0.17-0.14,0.32-0.35,0.44-0.55c0.09-0.27,0.17-0.11,0.58,0.02
			c0.43,0.12,0.39,0.22,0.66-0.29c-0.01-0.25-0.36-0.04-0.46-0.04c-0.23-0.09-0.46-0.11-0.48-0.21c-0.02-0.29,0.78-0.99,0.91-1.34
			C35.36,4.08,35.12,4.07,35,4.09z"/>
		<path class="st0" d="M34.35,7.47c0.08,0.18,0.28,0.38,0.42,0.44c0.11,0.04,0.33-0.56,0.25-0.63c-0.12-0.07-0.28-0.31-0.31-0.38
			C34.31,6.42,34.09,7.07,34.35,7.47z"/>
		<path class="st0" d="M43.72,11.82c0.17-0.3,1.38-0.96,1.05-1.16c-0.26-0.16-0.88,0.79-1.14,0.84c-0.22-0.08-0.15-0.58-0.47-0.33
			c-0.17,0.14-0.29,0.33-0.47,0.47c-0.6,0.44,0.01,0.4,0.3,0.26c0.29-0.24,0.65,0.3,0.99,0.55c0.36,0.42,0.72,0.42,0.96,0.84
			c0.12,0.12-0.61,0.08,0.16,0.45c0.09,0.02,0.71-0.05,0.6-0.22c-0.22-0.22-0.52-0.42-0.74-0.64c-0.84-0.58,0.19-0.25,0.91-0.34
			c0.31-0.09,0.41-0.16,0.47-0.42c0.01-0.28-0.33-0.35-0.37-0.34c-0.19,0-0.38,0.01-0.51-0.12c-0.1-0.01,0.1-0.09,0.1-0.18
			c-0.2-0.25-0.27,0.08-0.37-0.1c-0.22-0.14,0.19-0.14-0.02-0.34c-0.11-0.11-0.25-0.03-0.38,0.08c-0.06,0.05-0.09-0.08-0.16-0.02
			c-0.09,0.12,0.16,0.11,0,0.22c-0.09,0.09-0.32,0.13-0.41,0.22c-0.25,0.31-0.01,0.42,0.17,0.22c0.1-0.11,0.86-0.46,0.6-0.09
			c-0.22,0.07-1.09,0.52-0.38,0.5c0.18,0,0.24-0.03,0.44-0.08c0.29-0.1,0.31-0.45,0.81,0.02c-0.05,0.14-0.79,0.18-1.01,0.24
			C44.42,12.51,44.05,12.33,43.72,11.82z"/>
		<path class="st0" d="M42.95,12.83c0.51-0.59,0.84,0.33,1.3,0.37c0.19,0.02,0.06,0.52-0.14,0.52c-1.15-0.14,0.18,0.55-0.12,0.74
			c-0.23,0.21-0.33-0.24-0.6-0.29c-0.18,0.22-1.92,0.88-1.54-0.26c0.31-0.08,0.24,0.58,1.05,0.21c0.65-0.4-0.24-0.44-0.38-0.58
			c-0.77-0.77,0.17-0.59,0.62-0.1c0.3,0.29,0.76-0.21,0.38-0.24C43.23,13.2,43.11,13.03,42.95,12.83z"/>
		<path class="st0" d="M26.41,0c14.55,0,26.41,11.87,26.41,26.41S40.96,52.83,26.41,52.83C11.87,52.83,0,40.96,0,26.41
			S11.87,0,26.41,0L26.41,0z M26.41,1.53c-13.71,0-24.88,11.18-24.88,24.88c0,13.71,11.18,24.88,24.88,24.88
			c13.71,0,24.88-11.18,24.88-24.88C51.3,12.71,40.12,1.53,26.41,1.53L26.41,1.53z M26.41,7.09c-10.64,0-19.32,8.68-19.32,19.32
			c0,10.64,8.68,19.32,19.32,19.32c10.64,0,19.32-8.68,19.32-19.32C45.74,15.77,37.06,7.09,26.41,7.09L26.41,7.09z M26.41,8.37
			c-9.94,0-18.04,8.1-18.04,18.04c0,9.94,8.1,18.04,18.04,18.04c9.94,0,18.04-8.1,18.04-18.04C44.45,16.48,36.35,8.37,26.41,8.37
			L26.41,8.37z M13.77,15.93c0.41,0.85,0.76,1.58,0.5,2.22c-0.95,0.79-2.41,1.74-2.69,2.84c1.16,8-1.06,8.81,0.08,13.02
			c1.29,2.11,2.59,3.66,4.13,5.36c-0.13,0.22-0.39,0.7-0.29,0.84c-0.03,0.11,0.16,0.33,0.67,0.28c0.32-0.13,0.4-0.17,0.65-0.57
			c2.04,1.13,2.89,1.72,5.95,2.02c-0.19,0.44-0.23,0.63-0.17,1.14c0.17,0.23,0.41,0.29,0.72,0.17c0.28-0.33,0.41-0.89,0.56-1.28
			c2.09,0.27,4.19,0.16,6.28,0.13c0,0.38-0.03,0.61,0.09,0.93c0.39,0.39,0.7,0.01,0.88-0.21c0.24-0.27,0.21-0.66,0.21-0.94
			c3.61-0.81,8.66-4.09,9.41-9.54c-0.29-2.44-2.17-5.96-1.61-7.85c0.23-0.1,0.66-0.17,0.81,0.24c0.38,0.86-0.12,2.43,0.04,3.55
			c0.17,0.17,0.43,0.22,0.62,0.12c0.65-1.58,0.88-4.38,1.08-5.91c-0.61-3.52-5.97-8.97-8.25-8.8c-0.42,0.05-0.63,0.39-0.08,0.63
			c2.01,1.01,3.87,3,5.81,7.12c-1.42,0.81-1.77,1.33-2.33,2.91c-0.1,2.52-0.23,5.31-0.33,7.83c-0.2-0.3-0.25-0.36-0.66-0.53
			c-0.53,0.03-1.19,0.13-1.65,0.09c0.22-1.15,0.55-2.37,0.77-3.52c0.1-0.26,0.43-0.57,0.61-0.75c0.09-0.04,0.18-0.04,0.21-0.1
			c0.06-0.35-0.02-0.62-0.04-0.76c-0.19-0.07-0.02-0.01-0.35-0.13c0.5-1.78,0.73-2.51,1.16-3.8c0.17-0.05,0.46-0.1,0.72-0.2
			c0.33-0.33,0.39-0.62-0.22-0.89c-0.81-0.31-1.23-0.02-2.32,0.05c-0.49-0.48-1-1.11-1.49-1.38c-0.65-0.09-1.29-0.16-1.72,0.31
			c-0.09,0.16-0.23,0.35,0.15,0.95c0.49,0.33,0.95-0.04,2.03,0.74c-0.63,0.55-1.48,0.82-2.12,1.72c-1.04,1.91-2.22,3.3-2.65,5.59
			c-0.11,1.12-0.26,2.28,0.2,3.79c0.22,0.96,1.31,1.71,1.32,2.63c-0.24,0.31-0.63,0.72-1,0.94c-0.05-0.66-0.3-1.85-0.49-2.56
			c-0.53-0.66-1.74-1.11-2.47-1.77c0.22-1.49,0.81-3.19,1.03-4.68c0.27-0.05,0.42-0.08,0.66-0.12c0.04-0.21,0.06-0.39,0.01-0.81
			c-0.2-0.05-0.16-0.05-0.36-0.1c0.51-1.39,0.87-2.79,1.39-4.18c0.32-0.07,0.85-0.25,1.17-0.32c0.13-0.32,0.11-0.58,0.06-0.9
			c-1.73-0.5-2.64-0.22-4.83,0.22c-0.31-0.54-0.7-1.13-1.22-1.56c-0.43-0.11-0.72-0.19-1.23,0.11c-0.25,2.07,0.93,0.87,1.66,1.9
			c-1.86,1.97-3.53,4.77-3.43,7.56c0.48,2.57,1.95,3.72,1.74,5.12c-0.34,0.09-0.98,0.12-1.35,0.07c-0.21-0.84-0.25-1.77-1.02-2.08
			c-0.5-0.05-0.74,0.01-1.39-0.04c-0.07-0.01-0.19-0.28-0.18-0.36c0.39-1.52,0.93-2.92,1.32-4.44c0.08-0.08,0.38-0.03,0.47-0.11
			c0.05-0.23,0.18-0.95,0.12-1.08c-0.11-0.04-0.06,0.03-0.27-0.01c0.32-1.08,0.64-2,0.95-3.08c1.36,0.01,1.23-0.98,0.64-1.36
			c-0.93-0.04-2.04,0.12-3.02-0.08c-1.41-3.08-3.1-0.9-0.96,0.47c-1.61,1.61-3.58,2.55-3.92,5.25c-0.41,3.17-0.07,3.96,2.39,5.92
			c-0.59,0.05-1.69,0.12-2.27,0.17c-0.65-0.64-1.8-1.65-1.36-3.29c1.17-3.66,0.75-4.62,0.58-8.89c0.39-0.73,1.1-0.74,1.23-0.69
			c0.53,0,1.33,0.86,2.01,0.59c0.36-1.11-0.9-1.98-2.13-2.5C17.31,17.92,16.02,15.77,13.77,15.93L13.77,15.93z M17.82,25.22
			c0.24,0.63,0.66,1.25,1.04,1.69c0.35,0.11,0.71,0.1,1.04,0.05c0.19-1.25,0.78-2.53,1.14-3.78C19.24,23.01,18.13,24.23,17.82,25.22
			L17.82,25.22z M16.93,26.35c-0.74,0.64-0.84,1.63-0.92,2.52c-0.01,1.91,1,3.46,2.22,3.5c0.45-1.47,0.84-2.95,1.3-4.41
			c-0.47,0.03-1.03,0.08-1.4-0.15C17.73,27.31,17.33,26.83,16.93,26.35L16.93,26.35z M17.25,34.99c-0.43-0.25-1.37-0.22-1.56-0.05
			c0.04,0.3,0.34,1.11,1.13,1.21C17.09,35.82,17.14,35.69,17.25,34.99L17.25,34.99z M18.75,33.82c0.96,1.35,0.39,1.5,0.34,1.55
			c-0.25,0.02-0.48-0.08-0.73-0.06c-0.18,0.46-0.46,1.19-0.59,1.69c0.36,0.27,0.65,0.54,1.05,0.64c1.16-0.06,2.94-2.13,1.42-3.63
			C19.78,33.77,19.31,33.75,18.75,33.82L18.75,33.82z M21.2,37.23c-0.4,0.46-0.63,1.02-0.77,1.42c0.52,0.27,1.1,0.25,1.76,0.15
			C21.79,38.57,21.65,37.38,21.2,37.23L21.2,37.23z M22.37,36.19c0.23,0.85,0.74,1.84,1.02,2.7c0.82-0.33,0.75-1.22,0.8-1.8
			C23.67,36.71,23.06,36.32,22.37,36.19L22.37,36.19z M24.8,33.65c-0.05,0.52-0.04,0.99-0.02,1.46c0.33-0.19,0.38-0.59,0.47-0.97
			C25.16,33.93,24.99,33.78,24.8,33.65L24.8,33.65z M26.11,34.19c-0.51,1.64-1.06,3.57-1.57,5.21c2.6,0.36,3.23-0.78,3.81-1.51
			c-0.22-0.82-0.51-1.39-0.69-2.56C27.59,34.79,26.71,34.45,26.11,34.19L26.11,34.19z M23.3,26.81c-0.98,3.73,1.05,4.68,2.22,5.59
			c0.36-1.36,0.54-2.85,0.9-4.21c-0.52-0.07-0.86-0.1-1.47-0.3C24.42,27.51,24.64,27.06,23.3,26.81L23.3,26.81z M28.31,22.26
			c-1.8-0.37-5.37,1.8-2.59,4.55c0.31,0.18,0.79,0.29,1.17,0.35C27.28,25.61,27.92,23.81,28.31,22.26L28.31,22.26z M35.6,22.45
			c-2.09,0.58-3.93,3.27-1.33,4.53C34.67,25.62,35.19,23.81,35.6,22.45L35.6,22.45z M31.82,26.9c-0.79,1.38-1.62,4.21-0.14,4.98
			c0.73,0.13,1.07,0.1,1.51,0.06c0.24-1.28,0.59-2.64,0.83-3.92c-0.37-0.01-0.47-0.04-0.73-0.16C32.81,27.64,32.61,27.17,31.82,26.9
			L31.82,26.9z M31.75,33.39c-0.18,0.21-0.26,0.42-0.28,0.65c0.06,0.28,0.34,1.01,0.76,1.13c0.29-0.44,0.45-1.13,0.49-1.61
			C32.49,33.3,32.33,33.1,31.75,33.39L31.75,33.39z M29.53,38.42c0.44,0.33,1.07,0.71,1.63,0.95c0.33-0.91,0.71-2.03,0.89-2.87
			C31.16,36.99,30.17,37.72,29.53,38.42L29.53,38.42z M34.36,33.08c-0.25,0.22-0.65,0.42-0.9,0.64c-0.28,1.44-0.62,2.78-1.13,5
			C38.34,37.21,36.52,31.68,34.36,33.08L34.36,33.08z M38.44,29.41c0.02,1.73,0.11,4.07-0.46,5.84
			C39.61,34.59,38.76,30.19,38.44,29.41L38.44,29.41z M28.92,38.81c-0.15,0.2-0.35,0.32-0.59,0.47c0.05,0.05,0.07,0.12,0.12,0.17
			c0.21-0.05,0.46-0.21,0.66-0.45C29.04,38.88,29.04,38.89,28.92,38.81L28.92,38.81z M38.08,24.03c0.73-0.14,1.28-0.63,1.03-1.35
			C38.91,23.09,38.38,23.75,38.08,24.03z"/>
		<path class="st0" d="M2.5,27.24l3.29-0.35l-0.13-1.26l0.44-0.05l0.31,3.02l-0.44,0.05L5.84,27.4l-3.3,0.35L2.5,27.24L2.5,27.24z
			 M4.65,30.38c0.6-0.19,1.11-0.17,1.55,0.05c0.44,0.22,0.73,0.59,0.89,1.11c0.1,0.34,0.11,0.67,0.04,0.99
			c-0.08,0.32-0.24,0.6-0.48,0.83c-0.24,0.23-0.54,0.4-0.9,0.51c-0.36,0.11-0.71,0.14-1.05,0.08c-0.33-0.06-0.61-0.2-0.84-0.43
			c-0.23-0.23-0.39-0.5-0.49-0.82c-0.1-0.35-0.11-0.68-0.03-1c0.08-0.32,0.24-0.6,0.48-0.83C4.06,30.65,4.34,30.48,4.65,30.38
			L4.65,30.38z M4.79,30.89c-0.43,0.14-0.74,0.36-0.92,0.67c-0.18,0.32-0.21,0.65-0.11,1.01c0.11,0.37,0.32,0.63,0.65,0.78
			c0.32,0.16,0.72,0.16,1.18,0.02c0.29-0.09,0.53-0.22,0.72-0.39c0.19-0.17,0.31-0.37,0.38-0.6c0.06-0.23,0.06-0.47-0.02-0.71
			c-0.1-0.34-0.31-0.6-0.61-0.78C5.76,30.72,5.33,30.72,4.79,30.89L4.79,30.89z M4.72,36.61l3.32-1.8l0.24,0.46L6.6,38.46l2.6-1.41
			l0.22,0.43l-3.32,1.8l-0.24-0.46l1.68-3.19l-2.61,1.41L4.72,36.61L4.72,36.61z M9.77,41.74l0.34-0.29l1.02,1.24l-1.07,0.91
			c-0.31-0.06-0.58-0.16-0.82-0.3C9,43.17,8.8,42.99,8.62,42.78c-0.24-0.29-0.39-0.6-0.46-0.94c-0.07-0.34-0.04-0.67,0.09-0.98
			c0.13-0.32,0.34-0.6,0.62-0.84c0.28-0.24,0.59-0.4,0.93-0.49c0.34-0.09,0.66-0.07,0.97,0.05c0.3,0.12,0.57,0.33,0.81,0.62
			c0.17,0.21,0.3,0.43,0.37,0.66c0.07,0.23,0.09,0.44,0.05,0.64c-0.04,0.2-0.14,0.41-0.29,0.63l-0.38-0.27
			c0.11-0.17,0.18-0.32,0.21-0.46c0.03-0.14,0.02-0.29-0.03-0.45c-0.05-0.16-0.14-0.32-0.26-0.47c-0.15-0.18-0.3-0.31-0.46-0.39
			c-0.16-0.08-0.31-0.13-0.47-0.13c-0.15-0.01-0.3,0.01-0.44,0.06c-0.24,0.08-0.46,0.21-0.67,0.38c-0.26,0.22-0.43,0.45-0.53,0.69
			c-0.1,0.24-0.12,0.48-0.06,0.72c0.06,0.24,0.17,0.46,0.32,0.66c0.14,0.17,0.31,0.31,0.5,0.41c0.2,0.11,0.36,0.17,0.5,0.19
			l0.54-0.46L9.77,41.74L9.77,41.74z M11.87,44.42c-0.21,0.32-0.29,0.6-0.25,0.86c0.04,0.26,0.2,0.48,0.48,0.66
			c0.19,0.12,0.37,0.19,0.56,0.21c0.19,0.01,0.36-0.03,0.52-0.14c0.16-0.11,0.32-0.29,0.49-0.56l1.39-2.19l-0.42-0.28l-1.41,2.21
			c-0.12,0.18-0.22,0.31-0.3,0.37c-0.08,0.06-0.18,0.1-0.28,0.1c-0.11,0-0.21-0.04-0.32-0.11c-0.14-0.09-0.22-0.21-0.25-0.36
			c-0.02-0.14,0.04-0.34,0.19-0.59L11.87,44.42L11.87,44.42z M15.15,47.78l1.71-3.42l0.44,0.23l-1.71,3.42L15.15,47.78L15.15,47.78z
			 M22.17,46.23l0.49,0.11l-0.45,2.17c-0.08,0.38-0.18,0.67-0.31,0.87c-0.13,0.2-0.32,0.35-0.57,0.44c-0.25,0.09-0.55,0.1-0.9,0.02
			c-0.34-0.07-0.61-0.2-0.81-0.36c-0.19-0.17-0.31-0.38-0.36-0.63c-0.05-0.25-0.03-0.57,0.06-0.97l0.45-2.17l0.49,0.11l-0.45,2.16
			c-0.07,0.33-0.09,0.57-0.06,0.74c0.03,0.17,0.1,0.31,0.23,0.42c0.13,0.12,0.3,0.2,0.5,0.24c0.36,0.08,0.63,0.05,0.82-0.08
			c0.19-0.13,0.33-0.43,0.43-0.9L22.17,46.23L22.17,46.23z M24.28,50.4l0.13-3.83l0.51,0.02l1.87,3.08l0.1-3.01l0.48,0.02
			l-0.13,3.83l-0.51-0.02l-1.87-3.08l-0.1,3.01L24.28,50.4L24.28,50.4z M29.77,50.27l-0.46-3.8l0.49-0.06l0.46,3.8L29.77,50.27
			L29.77,50.27z M33.71,49.36l-2.49-3.23l0.52-0.16l1.73,2.37c0.14,0.19,0.26,0.37,0.37,0.54c0-0.22,0-0.44,0.01-0.66l0.17-2.97
			l0.49-0.15l-0.31,4.1L33.71,49.36L33.71,49.36z M37.46,47.83l-1.76-3.38l2.4-1.3l0.21,0.4l-1.96,1.06l0.54,1.04l1.83-1l0.21,0.4
			l-1.83,1l0.6,1.15l2.04-1.1l0.21,0.4L37.46,47.83L37.46,47.83z M41.82,45.11l0.36-0.35l-1.16-1.22l0.41-0.41
			c0.09-0.09,0.16-0.15,0.21-0.18c0.07-0.04,0.15-0.07,0.23-0.09c0.09-0.02,0.21-0.02,0.36,0.01c0.15,0.02,0.36,0.06,0.62,0.12
			l0.9,0.22l0.45-0.44l-1.18-0.29c-0.23-0.05-0.45-0.08-0.64-0.07c-0.09,0-0.21,0.03-0.35,0.08c0.22-0.29,0.34-0.57,0.33-0.82
			c0-0.26-0.1-0.48-0.28-0.68c-0.14-0.15-0.31-0.25-0.51-0.31c-0.19-0.05-0.38-0.04-0.55,0.03c-0.17,0.07-0.38,0.23-0.62,0.47
			l-1.2,1.18L41.82,45.11L41.82,45.11z M40.72,43.22l0.77-0.76c0.16-0.16,0.27-0.3,0.33-0.43c0.06-0.13,0.08-0.25,0.05-0.37
			c-0.02-0.12-0.08-0.23-0.16-0.32c-0.12-0.13-0.27-0.19-0.44-0.18c-0.17,0.01-0.36,0.11-0.56,0.31l-0.85,0.84L40.72,43.22
			L40.72,43.22z M44.43,40.56l0.23-0.42c0.17,0.09,0.32,0.13,0.47,0.13c0.15,0,0.3-0.05,0.45-0.15c0.16-0.1,0.3-0.24,0.41-0.42
			c0.11-0.16,0.18-0.32,0.21-0.47c0.03-0.16,0.03-0.29-0.01-0.41c-0.04-0.12-0.11-0.21-0.21-0.27c-0.1-0.07-0.2-0.1-0.31-0.09
			c-0.11,0.01-0.24,0.06-0.37,0.16c-0.09,0.06-0.26,0.22-0.53,0.46c-0.26,0.24-0.46,0.4-0.6,0.48c-0.18,0.1-0.35,0.14-0.51,0.14
			c-0.16-0.01-0.32-0.06-0.46-0.16c-0.16-0.11-0.27-0.25-0.35-0.44c-0.08-0.19-0.09-0.39-0.05-0.61c0.05-0.22,0.14-0.44,0.28-0.66
			c0.16-0.24,0.33-0.42,0.52-0.55c0.19-0.13,0.39-0.19,0.6-0.19c0.21,0,0.41,0.06,0.59,0.18l-0.24,0.42
			c-0.21-0.11-0.41-0.14-0.59-0.09c-0.18,0.06-0.36,0.21-0.52,0.45c-0.17,0.25-0.24,0.47-0.23,0.65c0.01,0.18,0.09,0.31,0.21,0.4
			c0.11,0.08,0.23,0.1,0.36,0.07c0.13-0.03,0.34-0.19,0.64-0.48c0.3-0.29,0.52-0.48,0.66-0.57c0.21-0.13,0.4-0.19,0.59-0.19
			c0.19,0,0.36,0.06,0.53,0.17c0.17,0.11,0.29,0.27,0.37,0.47c0.08,0.2,0.1,0.42,0.07,0.65c-0.04,0.24-0.13,0.47-0.28,0.7
			c-0.19,0.29-0.39,0.5-0.6,0.64c-0.21,0.14-0.43,0.21-0.67,0.2C44.87,40.76,44.64,40.69,44.43,40.56L44.43,40.56z M48.18,36.59
			l-3.48-1.44l0.19-0.47l3.48,1.44L48.18,36.59L48.18,36.59z M49.52,32.78l-3.17-0.99L45.99,33l-0.42-0.13l0.87-2.91l0.42,0.13
			l-0.36,1.21l3.17,0.99L49.52,32.78L49.52,32.78z M50.42,27.86l-1.58-0.17l-2.3,1.24l0.06-0.61l1.2-0.63
			c0.22-0.12,0.45-0.22,0.67-0.32c-0.18-0.14-0.39-0.3-0.62-0.49l-1.02-0.86l0.06-0.59l2,1.75l1.58,0.17L50.42,27.86z"/>
		<path class="st0" d="M22.25,14.02l-0.32,0.12l-0.75-2.07c-0.05,0.1-0.13,0.21-0.23,0.33c-0.1,0.12-0.19,0.22-0.28,0.29l-0.11-0.31
			c0.15-0.15,0.27-0.31,0.36-0.48c0.09-0.17,0.14-0.32,0.16-0.46l0.21-0.08L22.25,14.02z"/>
		<path class="st0" d="M23.93,13.11l0.32-0.09c0.05,0.15,0.13,0.25,0.22,0.31c0.09,0.06,0.2,0.07,0.32,0.05
			c0.1-0.02,0.19-0.06,0.26-0.12c0.07-0.06,0.12-0.14,0.16-0.23c0.04-0.09,0.06-0.2,0.07-0.35c0.01-0.14,0-0.28-0.02-0.42
			c0-0.01-0.01-0.04-0.01-0.07c-0.05,0.12-0.13,0.22-0.23,0.31c-0.11,0.09-0.23,0.14-0.36,0.17c-0.23,0.04-0.44-0.01-0.63-0.15
			c-0.19-0.14-0.31-0.34-0.35-0.61c-0.05-0.28-0.01-0.52,0.13-0.72c0.14-0.2,0.33-0.32,0.58-0.37c0.18-0.03,0.35-0.01,0.52,0.06
			c0.17,0.07,0.3,0.19,0.41,0.35c0.11,0.17,0.19,0.42,0.25,0.76c0.06,0.35,0.07,0.64,0.03,0.87c-0.04,0.22-0.13,0.4-0.26,0.54
			c-0.13,0.14-0.3,0.22-0.5,0.26c-0.22,0.04-0.4,0.01-0.56-0.09C24.11,13.47,24,13.32,23.93,13.11L23.93,13.11z M25.11,11.64
			c-0.03-0.19-0.11-0.34-0.24-0.44c-0.12-0.1-0.26-0.13-0.41-0.11c-0.15,0.03-0.27,0.11-0.36,0.25c-0.09,0.14-0.12,0.31-0.08,0.51
			c0.03,0.18,0.11,0.31,0.24,0.4c0.13,0.09,0.27,0.12,0.42,0.1c0.16-0.03,0.28-0.11,0.36-0.23C25.12,11.99,25.14,11.83,25.11,11.64z
			"/>
		<path class="st0" d="M27.57,12.09c0.06-0.33,0.14-0.59,0.24-0.77c0.1-0.19,0.23-0.32,0.38-0.41c0.15-0.08,0.33-0.11,0.53-0.07
			c0.15,0.03,0.27,0.08,0.38,0.16c0.1,0.08,0.18,0.18,0.23,0.31c0.05,0.13,0.09,0.27,0.1,0.44c0.01,0.17,0,0.39-0.05,0.67
			c-0.06,0.32-0.14,0.58-0.24,0.77c-0.1,0.19-0.23,0.32-0.38,0.41c-0.15,0.09-0.33,0.11-0.53,0.07c-0.27-0.05-0.46-0.18-0.58-0.4
			C27.5,13.01,27.48,12.61,27.57,12.09L27.57,12.09z M27.92,12.16c-0.08,0.45-0.08,0.77,0,0.94c0.08,0.17,0.2,0.27,0.35,0.29
			c0.16,0.03,0.3-0.03,0.43-0.16c0.13-0.13,0.24-0.43,0.32-0.88c0.08-0.46,0.08-0.77,0-0.94c-0.08-0.17-0.2-0.27-0.36-0.29
			c-0.16-0.03-0.29,0.02-0.41,0.13C28.11,11.4,28,11.7,27.92,12.16z"/>
		<path class="st0" d="M31.33,11.59l0.11-0.31l1.71,0.62l-0.09,0.25c-0.23,0.12-0.49,0.3-0.76,0.53c-0.27,0.24-0.51,0.5-0.72,0.78
			c-0.15,0.2-0.27,0.42-0.39,0.68l-0.33-0.12c0.08-0.21,0.21-0.44,0.4-0.71c0.19-0.27,0.4-0.51,0.65-0.73
			c0.25-0.22,0.48-0.39,0.72-0.52L31.33,11.59z"/>
	</g>
</g>
<g>
	<path class="st1" d="M87.13,15.45H78.2v-3.14h21.61v3.14h-8.93V41.8h-3.74V15.45z"/>
	<path class="st1" d="M96.79,37.66l2.66-1.89c1.33,2.33,2.98,3.3,5.11,3.3c3.18,0,4.75-1.81,4.75-6.28V12.31h3.7v20.84
		c0,5.07-2.33,9.17-8.09,9.17C101.18,42.33,98.52,40.72,96.79,37.66z"/>
	<path class="st1" d="M118.84,37.94l2.21-2.54c2.13,2.21,5.11,3.66,8.17,3.66c3.86,0,6.2-1.93,6.2-4.83c0-3.02-2.13-3.98-4.91-5.23
		l-4.27-1.85c-2.74-1.17-6-3.26-6-7.56c0-4.55,3.94-7.85,9.29-7.85c3.5,0,6.6,1.49,8.69,3.66l-1.97,2.37
		c-1.81-1.69-3.98-2.78-6.72-2.78c-3.34,0-5.51,1.69-5.51,4.35c0,2.86,2.58,3.94,4.87,4.91l4.22,1.81c3.42,1.49,6.08,3.5,6.08,7.89
		c0,4.67-3.86,8.37-10.02,8.37C125,42.33,121.42,40.64,118.84,37.94z"/>
	<path class="st1" d="M145,12.31h8.41c6.64,0,11.06,2.21,11.06,8.65c0,6.24-4.43,9.13-10.86,9.13h-4.87V41.8H145V12.31z
		 M153.13,27.08c5.19,0,7.65-1.89,7.65-6.12c0-4.27-2.62-5.63-7.81-5.63h-4.23v11.75H153.13z"/>
	<path class="st1" d="M181.7,32.79h-10.78l-2.86,9.01h-3.78l10.02-29.49h4.14l10.02,29.49h-3.94L181.7,32.79z M180.77,29.81
		l-1.41-4.51c-1.09-3.34-2.01-6.56-2.98-9.98h-0.16c-0.93,3.46-1.89,6.64-2.94,9.98l-1.45,4.51H180.77z"/>
	<path class="st1" d="M190.47,27.08c0-9.54,5.59-15.33,13.08-15.33c3.58,0,6.4,1.77,8.09,3.66l-2.01,2.41
		c-1.53-1.65-3.5-2.82-6.04-2.82c-5.59,0-9.29,4.59-9.29,11.95c0,7.44,3.54,12.11,9.17,12.11c2.82,0,4.95-1.25,6.84-3.3l2.05,2.33
		c-2.33,2.7-5.23,4.22-9.05,4.22C195.98,42.33,190.47,36.65,190.47,27.08z"/>
	<path class="st1" d="M217.83,12.31h17.02v3.14h-13.28v9.25h11.19v3.18h-11.19v10.74h13.72v3.18h-17.46V12.31z"/>
	<path class="st1" d="M245.96,27.28c0-1.61,1.17-2.66,2.46-2.66c1.37,0,2.49,1.05,2.49,2.66c0,1.49-1.13,2.58-2.49,2.58
		C247.13,29.85,245.96,28.77,245.96,27.28z"/>
	<path class="st1" d="M296.42,41.36c0,1.73-0.48,2.58-1.61,3.02c-1.21,0.48-3.18,0.52-6.64,0.52c-0.16-0.72-0.56-1.89-1.01-2.62
		c2.62,0.08,4.95,0.08,5.63,0.04c0.72-0.04,1.01-0.28,1.01-0.97V12.83h-27.68v32.11h-2.62V10.3h32.91V41.36z M290.22,19.63h-20.4
		V17.3h20.4V19.63z M274.37,36.61v2.98h-2.5V24.02h16.09v12.59H274.37z M274.37,26.31v8.01h11.11v-8.01H274.37z"/>
	<path class="st1" d="M308.09,25.99c-1.29-1.41-4.06-3.38-6.28-4.67l1.73-1.73c2.17,1.21,4.99,3.1,6.32,4.43L308.09,25.99z
		 M310.91,31.34c-1.69,4.19-3.86,9.13-5.79,12.76l-2.33-1.65c1.73-3.06,4.22-8.29,6-12.72L310.91,31.34z M309.94,15.25
		c-1.29-1.29-3.98-3.3-6.12-4.59l1.69-1.73c2.13,1.21,4.87,3.06,6.24,4.35L309.94,15.25z M317.91,28.57h2.62v4.02
		c0,3.9-1.21,8.69-7.97,11.75c-0.44-0.48-1.41-1.25-1.97-1.65c6.36-2.86,7.32-6.96,7.32-10.14V28.57z M332.92,15.29
		c-1.17,3.26-2.98,5.83-5.35,7.81c3.14,1.61,7,2.7,11.51,3.18c-0.56,0.6-1.29,1.69-1.65,2.41c-4.79-0.68-8.81-2.01-12.11-3.98
		c-3.3,2.09-7.44,3.46-12.27,4.43c-0.2-0.64-0.8-1.81-1.29-2.37c4.51-0.68,8.33-1.77,11.43-3.5c-2.62-2.05-4.63-4.71-6.08-7.97
		h-4.47v-2.37h11.11c-0.44-1.29-1.17-2.86-1.85-4.1l2.41-0.72c0.89,1.49,1.77,3.42,2.25,4.83h11.59v2.37H332.92z M319.72,15.29
		c1.33,2.7,3.22,4.83,5.63,6.52c2.13-1.65,3.74-3.78,4.75-6.52H319.72z M329.78,28.49h2.62v15.93h-2.62V28.49z"/>
	<path class="st1" d="M362.69,22.53c2.86,9.05,8.17,16.5,15.93,19.76c-0.64,0.6-1.49,1.69-1.97,2.49
		c-7.85-3.7-13.12-11.15-16.22-20.56c-1.89,7.97-6.2,16.01-16.22,20.6c-0.44-0.72-1.33-1.65-2.01-2.21
		c10.1-4.39,14.12-12.35,15.77-20.08h-15.05v-2.74h15.53c0.64-4.35,0.6-8.41,0.64-11.55h2.82c-0.04,3.22-0.08,7.24-0.68,11.55h16.78
		v2.74H362.69z"/>
	<path class="st1" d="M418.42,33.31h-16.5v8.13c0,1.73-0.48,2.5-1.85,2.9c-1.41,0.44-3.66,0.48-7.36,0.48
		c-0.2-0.8-0.72-1.85-1.13-2.62c3.14,0.12,5.83,0.12,6.6,0.04c0.84-0.04,1.05-0.24,1.05-0.8v-8.13h-16.17v-2.49h16.17v-2.98
		c2.5-0.89,5.27-2.33,7.4-3.78H389.7v-2.41h20l0.56-0.12l1.77,1.33c-2.62,2.33-6.48,4.59-10.1,6.16v1.81h16.5V33.31z M386.48,22.69
		h-2.54v-7.77h6.72c-0.76-1.57-2.25-3.7-3.58-5.31l2.21-1.01c1.53,1.65,3.18,3.94,3.86,5.51l-1.53,0.8h9.21
		c-0.52-1.73-1.85-4.31-3.14-6.2l2.33-0.84c1.41,1.93,2.82,4.51,3.3,6.24l-1.97,0.8h6.72c1.49-1.85,3.22-4.55,4.22-6.48l2.66,0.97
		c-1.21,1.85-2.74,3.86-4.06,5.51h6.76v7.77h-2.62v-5.35h-28.57V22.69z"/>
	<path class="st1" d="M436.09,32.43c-0.88-1.17-2.86-3.46-4.43-5.19v17.58h-2.62V28.16c-1.85,1.89-3.82,3.54-5.75,4.79
		c-0.24-0.76-0.84-2.05-1.21-2.54c4.43-2.74,9.21-7.69,11.83-12.84H423.1v-2.45h12.23l0.52-0.12l1.45,1.05
		c-1.21,3.02-3.02,5.96-5.11,8.57c1.57,1.53,4.71,4.75,5.59,5.63L436.09,32.43z M431.22,14.72c-0.76-1.45-2.33-3.74-3.82-5.35
		l2.01-1.17c1.53,1.57,3.22,3.74,3.94,5.19L431.22,14.72z M459.23,40.64v2.62h-23.06v-2.62h10.78V23.46h-8.85v-2.62h8.85V8.05h2.7
		v12.8h8.73v2.62h-8.73v17.18H459.23z"/>
	<path class="st1" d="M479.95,30.1v12.55h-10.34v2.21h-2.45V33.6c-0.93,1.49-1.93,2.82-3.1,4.02c-0.28-0.44-1.21-1.53-1.73-1.97
		c2.62-2.54,4.35-5.87,5.59-9.9h-3.18v-2.33h3.78c0.32-1.33,0.56-2.74,0.8-4.22h-6.36v-2.33h6.64c0.2-1.37,0.32-2.86,0.44-4.31
		h-5.07v-2.33h14.41v6.64h2.45v2.33h-2.45v6.56h-9.01c-0.44,1.53-0.92,2.98-1.45,4.35H479.95z M469.61,32.47v7.81h7.73v-7.81H469.61
		z M471.78,19.19c-0.24,1.45-0.48,2.86-0.8,4.22h5.88v-4.22H471.78z M472.55,12.55c-0.12,1.45-0.28,2.94-0.48,4.31h4.79v-4.31
		H472.55z M499.63,35.37h-7.93v9.54h-2.62v-9.54h-7.65v-2.54h7.65v-6.12h-6.16v-2.5h6.16v-5.75h-6.72v-2.45h16.34v2.45h-7v5.75h6.36
		v2.5h-6.36v6.12h7.93V35.37z M485.75,15.85c-0.36-1.85-1.49-4.55-2.78-6.64l2.13-0.72c1.33,2.01,2.58,4.71,2.98,6.52L485.75,15.85z
		 M497.94,8.81c-1.09,2.41-2.33,5.11-3.38,6.96l-2.17-0.64c1.01-1.85,2.29-4.91,2.98-7L497.94,8.81z"/>
</g>
</svg>
