<?xml version="1.0" encoding="utf-8"?>
<!-- Generator: Adobe Illustrator 23.0.1, SVG Export Plug-In . SVG Version: 6.00 Build 0)  -->
<svg version="1.1" id="图层_1" xmlns="http://www.w3.org/2000/svg" xmlns:xlink="http://www.w3.org/1999/xlink" x="0px" y="0px"
	 viewBox="0 0 68.6 68.6" style="enable-background:new 0 0 68.6 68.6;" xml:space="preserve">
<style type="text/css">
	.st0{fill-rule:evenodd;clip-rule:evenodd;fill:#0097DA;}
</style>
<g>
	<path class="st0" d="M10.69,16.77c-0.39-0.47-1.34-1.39-0.46-1.86c0.01,0.36,1.67-1.28,1.3-1.44c0.19-0.21,0.25-0.29,0.33-0.32
		c1.05-0.36,2.4,1.43,2.95,2.17c0.14,0.47,0.46,1.43,0.3,1.68c-1.63-0.78-0.58-0.72-0.59-1.09c-0.43-0.91-1.84-2.19-2.4-2.02
		c-0.25,0.25-0.7,1.18-1.14,1.47c-0.37,0.76,1.85,2.73,2.4,3.45c-0.3,0.17-0.35,0.14-0.6,0.1C12.19,18.31,10.91,17,10.69,16.77z"/>
	<path class="st0" d="M11.56,15.72c0.01,0.01,0.16,0.17,0.22,0.12c0.44-0.39,0.68-0.65,0.53-0.77c-0.1-0.08-0.12-0.12-0.2-0.11
		c-0.07,0.01-0.25,0.18-0.34,0.29C11.63,15.42,11.49,15.52,11.56,15.72z"/>
	<path class="st0" d="M12.92,16.66c0.72,0.66-0.21,0.67-0.6,0.46c-0.99-0.97,1.87-2.21,1.35-0.67
		C13.49,17.11,12.87,16.11,12.92,16.66z"/>
	<path class="st0" d="M24.62,4.56c-0.3,0.39,0.14,0.81,0.62,0.68c0.34-0.09-0.16-0.35-0.22-0.5C25.01,4.69,25,4.47,24.9,4.45
		C24.87,4.44,24.58,4.5,24.62,4.56z"/>
	<path class="st0" d="M24.99,5.47c0.2,0.26,0.24,0.43,0.12,0.68c-0.15,0.32-0.57,0.47-0.4-0.04c0.03-0.1-0.05-0.46-0.12-0.58
		C24.52,5.4,25,5.4,24.99,5.47z"/>
	<path class="st0" d="M25.53,10.39c-0.26-0.09-0.37-0.22-0.58-0.61c-0.07-0.92,0.18-1.59-0.33-3.09c-0.01-0.02,0.22-0.05,0.24-0.01
		c0.21,0.57,0.62,1.46,0.52,1.92c-0.07,0.15,0.19,0.89,0.26,1.07C25.7,10.09,25.7,10.4,25.53,10.39z"/>
	<path class="st0" d="M26.11,5.31c-0.18,0.48,0.06,0.61,0.19,0.74c0.11,0.31-0.33,0.93-0.48,1.24c-0.1,0.21-0.18,0.53,0.1,0.75
		c0.5-0.09,0.6-0.35,0.69-0.76c0.05-0.24,0.17-0.75,0.22-1.16c-0.02,0.03,0.19-0.49,0.42-0.52c0.26,0.33-0.35,0.52-0.1,1.03
		c0.4,0.19,0.36-0.78,0.36-0.88c0.04-0.42,0.23-0.99,0.43-0.51c0.21,0.45,0.24,0.61,0.49,0.86c0.26,0.19,0.62-0.11,0.37-0.4
		c-0.31-0.14-0.43,0.06-0.69-0.77c-0.05-0.14,0.07-0.06,0.29-0.38c-0.06,0.01,0.19-0.43-0.19-0.31c-0.05,0.04-0.71,1.09-0.93,0.87
		c-0.24-0.23,0.37-0.75,0.49-1.02c0.05-0.12,0.09-0.18,0.02-0.4c-0.26,0.06-0.89,0.44-0.64-0.36c0.01-0.28-0.65,0.12-0.67,0.17
		c-0.24,0.25-0.56,0.78-0.6,1.16c-0.02,0.63,0.27,0.29,0.54,0.09c0.13-0.19,0.24-0.5,0.59-0.63c0.45-0.09-0.14,1-0.09,1.12
		c0,0.19,0.07,0.33,0.04,0.41C26.59,6.09,26.36,5.09,26.11,5.31z"/>
	<path class="st0" d="M28.89,4.45c0.38,0.22,0.36,0.14,0.17,0.54c-0.08,0.18,0.66,0.06,0.69,0.07c0.21,0.1,1.27-0.36,0.94,0.35
		C30.45,5.93,29.32,5.75,29,5.6c-0.11-0.05-0.72-0.23-0.6-0.48C28.49,4.93,28.66,4.56,28.89,4.45z"/>
	<path class="st0" d="M27.09,6.9c-0.17,0.06-0.09,0.77-0.05,0.97c0.07,0.36,0.12,0.58,0.24,0.91c0.13,0.37,0.5,0.28,0.38-0.06
		c-0.11-0.31-0.19-0.67-0.17-0.93c0.04-0.34,0.39-0.24,0.48,0.23c0.22,0.81,0.33,0.04,0.5-0.33c0.02-0.1,0.18-1.19,0.59-0.7
		c0.38,0.27,0,1.78,0.12,1.83c0.32,0.15,0.42-1.06,0.45-1.31c-0.02-0.48-0.19-0.92-0.5-1.14c-0.32-0.15-0.5-0.01-0.64,0.29
		c-0.02,0.05-0.02,0.75-0.22,0.67c-0.14-0.1-0.11-0.47-0.31-0.46c-0.14,0.1-0.29,0.61-0.51,0.59c-0.05-0.02-0.19-0.37-0.17-0.44
		C27.25,6.8,27.14,6.87,27.09,6.9z"/>
	<path class="st0" d="M45.45,5.31c-0.35,0.28-0.76,0.5-1.1,1.02c-0.17,0.35-0.3,0.79-0.57,0.7c-0.27-0.1-0.69-0.28-0.89-0.19
		c-0.2-0.06-0.93,0.49-0.57,0.62c0.3,0.11,0.58,0.19,0.81,0.09c0.5-0.04,0.63,0.05,0.33,0.3c-0.35,0.32-0.63,0.6-0.98,0.92
		c-0.28,0.27-0.59,0.53-0.25,0.75c0.33-0.02,1.19-0.71,1.42-0.8c0.22-0.18,0.41-0.45,0.57-0.72c0.11-0.35,0.21-0.15,0.75,0.03
		c0.56,0.16,0.5,0.28,0.86-0.37c-0.02-0.32-0.46-0.05-0.6-0.05c-0.3-0.12-0.59-0.15-0.62-0.27c-0.03-0.37,1.01-1.28,1.18-1.74
		C45.91,5.3,45.61,5.29,45.45,5.31z"/>
	<path class="st0" d="M44.61,9.7c0.11,0.23,0.36,0.5,0.55,0.57c0.15,0.05,0.42-0.73,0.33-0.81c-0.16-0.1-0.37-0.41-0.41-0.49
		C44.56,8.34,44.27,9.18,44.61,9.7z"/>
	<path class="st0" d="M56.77,15.34c0.22-0.39,1.79-1.24,1.36-1.5c-0.33-0.21-1.14,1.03-1.48,1.09c-0.28-0.1-0.19-0.75-0.61-0.42
		c-0.23,0.19-0.38,0.43-0.61,0.61c-0.78,0.57,0.01,0.52,0.39,0.34c0.37-0.31,0.85,0.39,1.29,0.72c0.47,0.55,0.93,0.54,1.25,1.09
		c0.16,0.16-0.79,0.11,0.21,0.59c0.12,0.03,0.92-0.07,0.77-0.28c-0.29-0.29-0.67-0.55-0.96-0.83c-1.09-0.76,0.25-0.33,1.18-0.44
		c0.4-0.12,0.53-0.21,0.61-0.54c0.01-0.36-0.43-0.46-0.48-0.44c-0.25,0-0.5,0.02-0.67-0.15c-0.13-0.01,0.13-0.12,0.13-0.23
		c-0.26-0.33-0.35,0.1-0.48-0.13c-0.29-0.18,0.24-0.18-0.03-0.44c-0.14-0.14-0.33-0.04-0.5,0.1c-0.07,0.06-0.12-0.11-0.21-0.03
		c-0.11,0.15,0.21,0.14,0,0.29c-0.12,0.12-0.42,0.17-0.53,0.28c-0.33,0.4-0.01,0.55,0.22,0.29c0.13-0.15,1.12-0.6,0.78-0.12
		c-0.29,0.09-1.41,0.68-0.49,0.65c0.24,0,0.31-0.04,0.57-0.1c0.38-0.13,0.4-0.59,1.05,0.03c-0.06,0.19-1.02,0.24-1.31,0.31
		C57.68,16.24,57.2,16.01,56.77,15.34z"/>
	<path class="st0" d="M55.78,16.65c0.66-0.76,1.09,0.43,1.68,0.48c0.25,0.02,0.08,0.67-0.18,0.67c-1.49-0.18,0.23,0.71-0.16,0.97
		c-0.3,0.27-0.43-0.31-0.78-0.37c-0.24,0.29-2.5,1.14-2-0.34c0.4-0.1,0.31,0.76,1.37,0.27c0.84-0.52-0.31-0.58-0.49-0.75
		c-1-1,0.22-0.77,0.8-0.12c0.38,0.38,0.98-0.27,0.5-0.32C56.13,17.14,55.99,16.92,55.78,16.65z"/>
	<path class="st0" d="M34.3,0c18.89,0,34.3,15.41,34.3,34.3S53.19,68.6,34.3,68.6C15.41,68.6,0,53.19,0,34.3S15.41,0,34.3,0L34.3,0z
		 M34.3,1.99C16.5,1.99,1.99,16.5,1.99,34.3c0,17.8,14.51,32.31,32.31,32.31c17.8,0,32.31-14.51,32.31-32.31
		C66.61,16.5,52.1,1.99,34.3,1.99L34.3,1.99z M34.3,9.21C20.48,9.21,9.21,20.48,9.21,34.3c0,13.82,11.27,25.09,25.09,25.09
		c13.82,0,25.09-11.27,25.09-25.09C59.39,20.48,48.12,9.21,34.3,9.21L34.3,9.21z M34.3,10.88c-12.9,0-23.42,10.52-23.42,23.42
		c0,12.9,10.52,23.42,23.42,23.42c12.9,0,23.42-10.52,23.42-23.42C57.72,21.4,47.2,10.88,34.3,10.88L34.3,10.88z M17.88,20.69
		c0.53,1.11,0.98,2.05,0.65,2.89c-1.23,1.02-3.12,2.25-3.49,3.69c1.51,10.39-1.38,11.44,0.11,16.91c1.67,2.74,3.37,4.75,5.36,6.97
		c-0.17,0.29-0.51,0.91-0.38,1.09c-0.04,0.15,0.21,0.43,0.87,0.36c0.42-0.17,0.52-0.22,0.84-0.74c2.65,1.47,3.75,2.23,7.73,2.62
		c-0.24,0.57-0.3,0.81-0.22,1.48c0.22,0.3,0.54,0.38,0.94,0.22c0.37-0.42,0.53-1.16,0.73-1.66c2.71,0.36,5.44,0.21,8.15,0.16
		c0,0.49-0.04,0.79,0.11,1.2c0.5,0.51,0.91,0.01,1.14-0.27c0.31-0.35,0.27-0.86,0.27-1.23c4.69-1.05,11.24-5.32,12.22-12.39
		c-0.37-3.17-2.82-7.74-2.1-10.2c0.3-0.13,0.86-0.22,1.05,0.32c0.49,1.12-0.16,3.15,0.06,4.61c0.22,0.23,0.55,0.29,0.81,0.16
		c0.84-2.05,1.14-5.68,1.4-7.67c-0.8-4.57-7.75-11.65-10.71-11.42c-0.54,0.06-0.82,0.5-0.11,0.82c2.61,1.31,5.03,3.89,7.54,9.24
		c-1.84,1.05-2.3,1.73-3.03,3.78c-0.13,3.27-0.3,6.9-0.43,10.17c-0.25-0.4-0.32-0.47-0.86-0.69c-0.69,0.04-1.55,0.17-2.15,0.11
		c0.29-1.49,0.72-3.08,1-4.57c0.13-0.34,0.56-0.74,0.79-0.97c0.12-0.05,0.23-0.05,0.28-0.13c0.07-0.46-0.03-0.81-0.06-0.99
		c-0.25-0.09-0.03-0.01-0.46-0.16c0.65-2.31,0.95-3.25,1.5-4.93c0.23-0.06,0.6-0.13,0.93-0.26c0.43-0.43,0.51-0.8-0.29-1.15
		c-1.05-0.4-1.6-0.02-3.01,0.07c-0.63-0.62-1.3-1.44-1.93-1.8c-0.85-0.11-1.67-0.21-2.23,0.41c-0.11,0.2-0.3,0.45,0.19,1.24
		c0.64,0.43,1.23-0.05,2.63,0.95c-0.82,0.72-1.93,1.06-2.75,2.23c-1.35,2.48-2.89,4.28-3.45,7.26c-0.15,1.45-0.34,2.96,0.26,4.92
		c0.28,1.24,1.7,2.22,1.72,3.42c-0.32,0.4-0.82,0.94-1.3,1.22c-0.07-0.86-0.38-2.4-0.64-3.32c-0.68-0.86-2.26-1.45-3.21-2.3
		c0.29-1.94,1.06-4.14,1.34-6.08c0.35-0.06,0.55-0.11,0.86-0.15c0.05-0.27,0.08-0.51,0.02-1.06C36.33,35,36.37,35,36.12,34.94
		c0.67-1.81,1.13-3.62,1.8-5.43c0.41-0.1,1.11-0.32,1.52-0.42c0.16-0.41,0.14-0.76,0.08-1.17c-2.25-0.65-3.42-0.29-6.27,0.28
		c-0.41-0.7-0.91-1.47-1.58-2.03c-0.56-0.14-0.93-0.25-1.6,0.14c-0.32,2.69,1.21,1.13,2.15,2.47c-2.41,2.56-4.59,6.2-4.45,9.81
		c0.62,3.34,2.53,4.84,2.26,6.65c-0.44,0.11-1.28,0.15-1.76,0.09c-0.27-1.09-0.33-2.3-1.33-2.7c-0.65-0.07-0.96,0.01-1.8-0.05
		c-0.1-0.01-0.24-0.36-0.24-0.46c0.51-1.97,1.21-3.8,1.72-5.77c0.11-0.11,0.49-0.04,0.61-0.14c0.07-0.29,0.23-1.23,0.15-1.41
		c-0.15-0.05-0.08,0.03-0.36-0.01c0.41-1.4,0.83-2.6,1.24-4c1.77,0.01,1.59-1.27,0.84-1.76c-1.2-0.05-2.65,0.15-3.92-0.1
		c-1.82-3.99-4.02-1.16-1.25,0.61c-2.09,2.09-4.65,3.31-5.09,6.81c-0.53,4.11-0.09,5.15,3.1,7.69c-0.76,0.06-2.19,0.16-2.95,0.23
		c-0.84-0.83-2.33-2.14-1.76-4.27c1.52-4.75,0.98-6,0.75-11.55c0.51-0.95,1.42-0.96,1.6-0.9c0.69,0.01,1.73,1.11,2.61,0.77
		c0.47-1.44-1.17-2.57-2.77-3.25C22.48,23.27,20.81,20.48,17.88,20.69L17.88,20.69z M23.14,32.75c0.31,0.82,0.85,1.62,1.35,2.19
		c0.46,0.14,0.92,0.13,1.36,0.06c0.24-1.62,1.01-3.29,1.48-4.91C24.98,29.87,23.54,31.46,23.14,32.75L23.14,32.75z M21.99,34.21
		c-0.97,0.83-1.09,2.12-1.19,3.27c-0.01,2.48,1.3,4.49,2.89,4.54c0.59-1.9,1.1-3.83,1.69-5.73c-0.61,0.04-1.33,0.1-1.82-0.2
		C23.03,35.47,22.51,34.84,21.99,34.21L21.99,34.21z M22.4,45.44c-0.56-0.32-1.77-0.29-2.03-0.06c0.06,0.39,0.44,1.44,1.47,1.57
		C22.19,46.51,22.26,46.34,22.4,45.44L22.4,45.44z M24.35,43.91c1.25,1.76,0.5,1.95,0.45,2.02c-0.33,0.03-0.62-0.1-0.95-0.07
		c-0.23,0.6-0.6,1.55-0.76,2.2c0.46,0.34,0.85,0.7,1.37,0.83c1.5-0.08,3.82-2.77,1.84-4.72C25.68,43.85,25.07,43.83,24.35,43.91
		L24.35,43.91z M27.53,48.34c-0.51,0.59-0.82,1.33-1,1.85c0.67,0.35,1.43,0.32,2.28,0.19C28.29,50.09,28.11,48.55,27.53,48.34
		L27.53,48.34z M29.05,46.99c0.3,1.1,0.96,2.4,1.32,3.5c1.06-0.43,0.97-1.58,1.05-2.34C30.74,47.67,29.95,47.16,29.05,46.99
		L29.05,46.99z M32.2,43.69c-0.07,0.67-0.05,1.29-0.02,1.9c0.43-0.25,0.5-0.77,0.61-1.26C32.67,44.06,32.46,43.86,32.2,43.69
		L32.2,43.69z M33.91,44.4c-0.66,2.13-1.38,4.64-2.04,6.76c3.37,0.47,4.2-1.01,4.94-1.96c-0.28-1.07-0.66-1.8-0.9-3.33
		C35.82,45.18,34.68,44.73,33.91,44.4L33.91,44.4z M30.25,34.81c-1.27,4.84,1.36,6.07,2.88,7.26c0.46-1.77,0.7-3.69,1.17-5.46
		c-0.67-0.09-1.12-0.13-1.91-0.38C31.71,35.72,31.99,35.14,30.25,34.81L30.25,34.81z M36.76,28.91c-2.34-0.49-6.97,2.34-3.36,5.9
		c0.41,0.23,1.02,0.38,1.52,0.45C35.43,33.26,36.25,30.92,36.76,28.91L36.76,28.91z M46.23,29.15c-2.72,0.76-5.1,4.25-1.73,5.88
		C45.02,33.27,45.7,30.92,46.23,29.15L46.23,29.15z M41.32,34.93c-1.03,1.79-2.1,5.46-0.18,6.46c0.94,0.17,1.39,0.14,1.96,0.08
		c0.31-1.67,0.77-3.42,1.08-5.09c-0.48-0.02-0.62-0.06-0.94-0.21C42.61,35.89,42.34,35.28,41.32,34.93L41.32,34.93z M41.23,43.36
		c-0.23,0.27-0.33,0.55-0.37,0.85c0.08,0.36,0.44,1.31,0.98,1.47c0.37-0.58,0.58-1.47,0.63-2.09
		C42.19,43.24,41.98,42.98,41.23,43.36L41.23,43.36z M38.35,49.9c0.57,0.42,1.38,0.93,2.11,1.24c0.43-1.18,0.93-2.63,1.15-3.73
		C40.46,48.03,39.17,48.98,38.35,49.9L38.35,49.9z M44.62,42.96c-0.32,0.29-0.84,0.55-1.16,0.83c-0.36,1.87-0.81,3.6-1.47,6.5
		C49.79,48.31,47.42,41.13,44.62,42.96L44.62,42.96z M49.91,38.19c0.02,2.25,0.14,5.28-0.6,7.58
		C51.44,44.92,50.34,39.21,49.91,38.19L49.91,38.19z M37.55,50.39c-0.19,0.26-0.46,0.42-0.76,0.62c0.06,0.06,0.09,0.15,0.15,0.22
		c0.28-0.06,0.6-0.28,0.86-0.58C37.71,50.48,37.71,50.5,37.55,50.39L37.55,50.39z M49.45,31.21c0.95-0.18,1.66-0.82,1.34-1.76
		C50.53,29.98,49.84,30.84,49.45,31.21z"/>
	<path class="st0" d="M3.24,35.38l4.28-0.46l-0.17-1.63l0.57-0.06l0.4,3.92l-0.57,0.06l-0.17-1.64l-4.28,0.46L3.24,35.38L3.24,35.38
		z M6.04,39.46c0.77-0.24,1.44-0.22,2.01,0.07C8.61,39.81,9,40.29,9.2,40.96c0.13,0.44,0.15,0.87,0.05,1.28
		c-0.1,0.42-0.31,0.78-0.62,1.08c-0.31,0.3-0.7,0.52-1.17,0.67c-0.47,0.15-0.93,0.18-1.36,0.1c-0.43-0.08-0.8-0.27-1.1-0.56
		c-0.3-0.3-0.51-0.65-0.63-1.07c-0.13-0.45-0.15-0.88-0.04-1.3c0.11-0.42,0.32-0.78,0.63-1.07C5.27,39.79,5.63,39.58,6.04,39.46
		L6.04,39.46z M6.22,40.11c-0.56,0.18-0.96,0.47-1.19,0.88C4.8,41.39,4.76,41.83,4.9,42.3c0.14,0.47,0.42,0.81,0.84,1.02
		c0.42,0.2,0.93,0.21,1.53,0.03c0.38-0.12,0.69-0.29,0.93-0.51c0.24-0.22,0.41-0.48,0.49-0.78c0.08-0.3,0.07-0.61-0.02-0.92
		c-0.13-0.45-0.4-0.78-0.8-1.01C7.47,39.89,6.93,39.89,6.22,40.11L6.22,40.11z M6.13,47.54l4.31-2.34l0.31,0.6l-2.18,4.14l3.38-1.83
		l0.29,0.56L7.93,51l-0.31-0.6l2.18-4.14L6.42,48.1L6.13,47.54L6.13,47.54z M12.69,54.2l0.44-0.37l1.33,1.61l-1.39,1.19
		c-0.4-0.08-0.75-0.21-1.07-0.39c-0.31-0.18-0.59-0.41-0.81-0.69c-0.31-0.37-0.51-0.78-0.6-1.22c-0.1-0.44-0.06-0.87,0.11-1.28
		c0.17-0.41,0.44-0.77,0.8-1.09c0.36-0.31,0.77-0.52,1.21-0.64c0.44-0.12,0.86-0.09,1.25,0.07c0.39,0.16,0.74,0.43,1.06,0.81
		c0.23,0.28,0.39,0.56,0.48,0.86c0.1,0.3,0.12,0.58,0.07,0.84c-0.05,0.26-0.18,0.53-0.37,0.81l-0.5-0.35
		c0.14-0.22,0.23-0.42,0.27-0.6c0.04-0.18,0.03-0.37-0.04-0.59c-0.06-0.21-0.18-0.42-0.33-0.61c-0.19-0.23-0.39-0.4-0.6-0.51
		c-0.21-0.11-0.41-0.17-0.61-0.18c-0.2-0.01-0.39,0.02-0.57,0.08c-0.31,0.1-0.6,0.27-0.87,0.5c-0.33,0.29-0.56,0.58-0.69,0.89
		c-0.13,0.31-0.15,0.62-0.08,0.94c0.08,0.32,0.22,0.6,0.42,0.85c0.18,0.22,0.4,0.4,0.65,0.53c0.25,0.14,0.47,0.22,0.65,0.25l0.7-0.6
		L12.69,54.2L12.69,54.2z M15.42,57.68c-0.27,0.41-0.38,0.78-0.32,1.12c0.06,0.34,0.26,0.62,0.62,0.86
		c0.24,0.16,0.48,0.25,0.73,0.27c0.24,0.02,0.47-0.04,0.67-0.18c0.2-0.14,0.42-0.38,0.64-0.73l1.81-2.84l-0.54-0.36L17.2,58.7
		c-0.15,0.24-0.28,0.4-0.39,0.49c-0.11,0.08-0.23,0.13-0.37,0.12c-0.14,0-0.28-0.05-0.41-0.14c-0.18-0.12-0.29-0.28-0.32-0.46
		c-0.03-0.19,0.05-0.44,0.24-0.77L15.42,57.68L15.42,57.68z M19.68,62.04l2.21-4.43l0.57,0.3l-2.21,4.43L19.68,62.04L19.68,62.04z
		 M28.79,60.03l0.63,0.14l-0.59,2.81c-0.1,0.49-0.24,0.87-0.41,1.13c-0.17,0.26-0.41,0.46-0.73,0.57c-0.32,0.12-0.71,0.13-1.17,0.03
		c-0.45-0.1-0.8-0.25-1.05-0.47c-0.25-0.22-0.41-0.49-0.47-0.81c-0.06-0.32-0.04-0.74,0.07-1.26l0.59-2.81l0.63,0.14l-0.59,2.81
		c-0.09,0.42-0.11,0.74-0.08,0.96c0.03,0.22,0.14,0.4,0.3,0.55c0.17,0.15,0.38,0.25,0.65,0.31c0.46,0.1,0.82,0.06,1.06-0.11
		c0.24-0.17,0.43-0.56,0.55-1.17L28.79,60.03L28.79,60.03z M31.53,65.45l0.17-4.97l0.66,0.02l2.43,4l0.13-3.91l0.62,0.02l-0.17,4.97
		l-0.66-0.02l-2.43-4l-0.13,3.91L31.53,65.45L31.53,65.45z M38.66,65.28l-0.59-4.94l0.64-0.08l0.59,4.94L38.66,65.28L38.66,65.28z
		 M43.78,64.09l-3.23-4.2l0.67-0.21l2.25,3.08c0.18,0.25,0.34,0.48,0.48,0.7c0-0.28,0-0.57,0.02-0.86l0.22-3.85l0.63-0.2l-0.4,5.33
		L43.78,64.09L43.78,64.09z M48.65,62.11l-2.29-4.39l3.11-1.69l0.27,0.52l-2.54,1.38l0.7,1.35l2.38-1.29l0.27,0.52l-2.38,1.29
		l0.78,1.5l2.64-1.43l0.27,0.52L48.65,62.11L48.65,62.11z M54.31,58.58l0.46-0.46l-1.5-1.59l0.54-0.53c0.12-0.12,0.21-0.2,0.27-0.24
		c0.09-0.05,0.19-0.09,0.3-0.11c0.11-0.02,0.27-0.02,0.46,0.01c0.2,0.03,0.46,0.08,0.8,0.16l1.17,0.29l0.58-0.58l-1.53-0.37
		c-0.3-0.07-0.58-0.1-0.84-0.1c-0.12,0-0.27,0.04-0.45,0.1c0.29-0.38,0.44-0.74,0.43-1.07c0-0.33-0.13-0.63-0.37-0.88
		c-0.19-0.2-0.4-0.33-0.66-0.4c-0.25-0.07-0.49-0.05-0.71,0.04c-0.22,0.1-0.49,0.3-0.8,0.61L50.92,55L54.31,58.58L54.31,58.58z
		 M52.88,56.13l1-0.98c0.21-0.21,0.36-0.4,0.43-0.56c0.08-0.16,0.1-0.32,0.07-0.48c-0.03-0.16-0.1-0.3-0.21-0.41
		c-0.16-0.17-0.35-0.25-0.58-0.24c-0.22,0.01-0.46,0.14-0.73,0.4l-1.11,1.09L52.88,56.13L52.88,56.13z M57.7,52.66l0.3-0.55
		c0.22,0.12,0.42,0.17,0.61,0.17c0.19,0,0.39-0.07,0.59-0.2c0.2-0.13,0.38-0.32,0.54-0.55c0.14-0.21,0.23-0.41,0.27-0.61
		c0.04-0.2,0.04-0.38-0.01-0.53c-0.06-0.15-0.14-0.27-0.27-0.36c-0.13-0.09-0.26-0.13-0.41-0.12c-0.14,0.01-0.31,0.08-0.48,0.21
		c-0.12,0.08-0.34,0.28-0.68,0.6c-0.34,0.32-0.6,0.53-0.78,0.62c-0.23,0.13-0.45,0.19-0.67,0.18c-0.21-0.01-0.41-0.07-0.6-0.2
		c-0.2-0.14-0.36-0.33-0.45-0.57c-0.1-0.24-0.12-0.51-0.06-0.8c0.06-0.29,0.18-0.57,0.36-0.85c0.2-0.31,0.43-0.54,0.68-0.71
		c0.25-0.17,0.51-0.25,0.78-0.25c0.27,0,0.53,0.08,0.77,0.24l-0.31,0.55c-0.27-0.15-0.53-0.19-0.77-0.11
		c-0.24,0.07-0.46,0.27-0.67,0.58c-0.22,0.33-0.32,0.61-0.3,0.84c0.02,0.23,0.11,0.41,0.28,0.52c0.15,0.1,0.3,0.13,0.46,0.09
		c0.16-0.04,0.44-0.25,0.83-0.63c0.39-0.38,0.68-0.62,0.86-0.74c0.27-0.17,0.52-0.25,0.76-0.25c0.24,0,0.47,0.08,0.69,0.23
		c0.22,0.15,0.38,0.35,0.48,0.61c0.11,0.26,0.14,0.54,0.09,0.85c-0.05,0.31-0.17,0.61-0.37,0.9c-0.25,0.37-0.51,0.65-0.78,0.83
		c-0.27,0.18-0.56,0.27-0.87,0.26C58.26,52.93,57.97,52.84,57.7,52.66L57.7,52.66z M62.56,47.51l-4.52-1.86l0.24-0.61l4.52,1.86
		L62.56,47.51L62.56,47.51z M64.31,42.57l-4.11-1.28l-0.47,1.57l-0.55-0.17l1.13-3.77l0.55,0.17l-0.47,1.57l4.11,1.28L64.31,42.57
		L64.31,42.57z M65.47,36.18l-2.05-0.22l-2.99,1.61l0.08-0.8l1.56-0.82c0.29-0.15,0.58-0.29,0.87-0.41
		c-0.24-0.18-0.51-0.39-0.8-0.63l-1.33-1.11l0.08-0.76l2.59,2.28l2.05,0.22L65.47,36.18z"/>
	<path class="st0" d="M28.9,18.21l-0.42,0.15l-0.98-2.68c-0.07,0.13-0.16,0.28-0.29,0.43c-0.13,0.16-0.25,0.28-0.36,0.38l-0.15-0.41
		c0.2-0.2,0.35-0.41,0.47-0.63c0.12-0.22,0.19-0.42,0.21-0.6l0.27-0.1L28.9,18.21z"/>
	<path class="st0" d="M31.08,17.02l0.42-0.11c0.07,0.19,0.17,0.33,0.28,0.4c0.12,0.07,0.25,0.09,0.41,0.07
		c0.14-0.02,0.25-0.08,0.34-0.16c0.09-0.08,0.16-0.18,0.21-0.29c0.05-0.12,0.08-0.27,0.09-0.45c0.01-0.18,0-0.37-0.03-0.55
		c0-0.02-0.01-0.05-0.02-0.09c-0.06,0.16-0.16,0.29-0.3,0.41c-0.14,0.11-0.3,0.19-0.47,0.22c-0.3,0.05-0.57-0.01-0.81-0.19
		c-0.24-0.18-0.4-0.45-0.46-0.8c-0.06-0.37-0.01-0.68,0.17-0.94c0.18-0.26,0.43-0.42,0.75-0.48c0.23-0.04,0.46-0.02,0.67,0.08
		c0.22,0.09,0.39,0.25,0.54,0.46c0.14,0.22,0.25,0.54,0.33,0.99c0.08,0.46,0.1,0.83,0.04,1.12c-0.05,0.29-0.16,0.52-0.34,0.7
		c-0.17,0.18-0.39,0.29-0.66,0.34c-0.28,0.05-0.52,0.01-0.73-0.11C31.31,17.49,31.16,17.29,31.08,17.02L31.08,17.02z M32.6,15.11
		c-0.04-0.25-0.15-0.44-0.31-0.57c-0.16-0.12-0.34-0.17-0.53-0.14c-0.2,0.03-0.35,0.14-0.47,0.33c-0.12,0.19-0.15,0.41-0.11,0.66
		c0.04,0.23,0.14,0.4,0.31,0.52c0.16,0.12,0.35,0.16,0.55,0.12c0.21-0.04,0.36-0.14,0.47-0.3C32.62,15.58,32.65,15.37,32.6,15.11z"
		/>
	<path class="st0" d="M35.8,15.71c0.07-0.43,0.18-0.76,0.31-1c0.13-0.24,0.3-0.42,0.5-0.53c0.2-0.11,0.43-0.14,0.69-0.1
		c0.19,0.03,0.36,0.1,0.49,0.21c0.13,0.1,0.23,0.24,0.3,0.4c0.07,0.16,0.11,0.35,0.13,0.57c0.02,0.22-0.01,0.51-0.07,0.86
		c-0.07,0.42-0.18,0.75-0.31,1c-0.13,0.24-0.3,0.42-0.5,0.53c-0.2,0.11-0.43,0.14-0.69,0.1c-0.35-0.06-0.6-0.23-0.75-0.52
		C35.71,16.89,35.68,16.38,35.8,15.71L35.8,15.71z M36.25,15.79c-0.1,0.59-0.1,0.99,0,1.22c0.1,0.22,0.26,0.35,0.46,0.38
		c0.2,0.04,0.39-0.03,0.56-0.2c0.17-0.17,0.31-0.55,0.42-1.14c0.1-0.59,0.1-1,0-1.22c-0.1-0.22-0.26-0.35-0.46-0.38
		c-0.2-0.04-0.38,0.02-0.53,0.17C36.5,14.8,36.35,15.2,36.25,15.79z"/>
	<path class="st0" d="M40.69,15.06l0.15-0.41l2.22,0.81l-0.12,0.33c-0.3,0.15-0.63,0.38-0.99,0.69c-0.35,0.31-0.66,0.64-0.93,1.01
		c-0.19,0.26-0.36,0.55-0.5,0.88l-0.43-0.16c0.1-0.27,0.27-0.57,0.52-0.92c0.24-0.34,0.52-0.66,0.84-0.95
		c0.32-0.29,0.63-0.51,0.93-0.68L40.69,15.06z"/>
</g>
</svg>
